<svg width="300" height="50" viewBox="0 0 300 50" fill="none" xmlns="http://www.w3.org/2000/svg">
<path d="M18.4707 13.4395C24.2031 13.4395 27.0693 15.168 27.0693 18.625C27.0693 20.0312 26.5518 21.2031 25.5166 22.1406C24.4326 23.1172 22.958 23.6445 21.0928 23.7227V23.7812C22.1084 24.0254 22.8945 24.5381 23.4512 25.3193C23.7441 25.7295 24.0664 26.3838 24.418 27.2822C24.7695 28.1709 25.0479 28.8789 25.2529 29.4062C25.458 29.9238 25.6631 30.3926 25.8682 30.8125C26.3271 31.7598 26.7324 32.2334 27.084 32.2334C27.2305 32.2334 27.3574 32.1699 27.4648 32.043C27.5723 31.9062 27.6797 31.7549 27.7871 31.5889C28.0898 31.1689 28.3633 30.959 28.6074 30.959C28.6367 30.959 28.7051 30.9883 28.8125 31.0469C28.9199 31.0957 28.9736 31.1982 28.9736 31.3545C28.9736 31.5107 28.9395 31.6768 28.8711 31.8525C28.3145 32.7412 27.8945 33.3223 27.6113 33.5957C27.0059 34.1914 26.332 34.4893 25.5898 34.4893C24.8574 34.4893 24.2715 34.3721 23.832 34.1377C23.4023 33.9033 23.041 33.5908 22.748 33.2002C22.4551 32.7998 22.2158 32.3408 22.0303 31.8232C21.8545 31.3057 21.6934 30.7637 21.5469 30.1973C21.4102 29.6309 21.2734 29.0596 21.1367 28.4834C21 27.9072 20.8291 27.3604 20.624 26.8428C20.1553 25.6807 19.5059 24.8945 18.6758 24.4844C18.4707 24.377 18.2217 24.2646 17.9287 24.1475V22.9463C20.6924 22.9463 22.3672 22.1699 22.9531 20.6172C23.1484 20.0801 23.2461 19.4453 23.2461 18.7129C23.2461 17.3945 22.8604 16.3691 22.0889 15.6367C21.3174 14.9043 20.1357 14.5381 18.5439 14.5381C18.2607 14.5381 18.0557 14.5527 17.9287 14.582V13.4395H18.4707ZM16.7129 30.7686C16.7129 31.4131 16.7324 31.8672 16.7715 32.1309C16.8105 32.3945 16.8984 32.585 17.0352 32.7021C17.1816 32.8193 17.3525 32.9121 17.5479 32.9805C17.7432 33.0391 17.9482 33.0928 18.1631 33.1416C18.3779 33.1904 18.5781 33.2734 18.7637 33.3906V34.2549H11V33.3906C11.1465 33.2734 11.3223 33.1904 11.5273 33.1416C11.7324 33.0928 11.9375 33.0342 12.1426 32.9658C12.6309 32.8193 12.9043 32.5459 12.9629 32.1455C13.0215 31.7354 13.0508 31.2666 13.0508 30.7393V16.9404C13.0508 15.8564 12.9238 15.2119 12.6699 15.0068C12.4648 14.8408 12.1768 14.7139 11.8057 14.626C11.4443 14.5283 11.1758 14.4209 11 14.3037V13.4395H16.7129V30.7686Z" fill="#AD4900"/>
<path d="M37.2354 33.083C38.0361 33.083 38.7588 32.7705 39.4033 32.1455V33.8301C38.5244 34.377 37.4404 34.6504 36.1514 34.6504C34.0225 34.6504 32.6992 33.9033 32.1816 32.4092C32.0059 31.8916 31.918 31.2666 31.918 30.5342V22.2285C31.918 21.7207 31.7275 21.3643 31.3467 21.1592C31.1807 21.0713 30.9951 21.0029 30.79 20.9541C30.585 20.8955 30.3896 20.8076 30.2041 20.6904V19.7969H35.0527V30.7979C35.0527 32.3213 35.7803 33.083 37.2354 33.083ZM40.6191 22.2285C40.6191 21.7109 40.4238 21.3545 40.0332 21.1592C39.8574 21.0713 39.6621 21.0029 39.4473 20.9541C39.2324 20.8955 39.0176 20.8076 38.8027 20.6904V19.7969H43.7393V31.8525C43.7393 32.3604 43.9395 32.7119 44.3398 32.9072C44.5156 32.9951 44.7061 33.0684 44.9111 33.127C45.1162 33.1855 45.3115 33.2734 45.4971 33.3906V34.2549H40.8242L40.6191 32.7021V22.2285Z" fill="#AD4900"/>
<path d="M53.4658 34.6211C51.7959 34.4551 50.4238 33.7471 49.3496 32.4971C48.1484 31.1006 47.5479 29.2988 47.5479 27.0918C47.5479 24.8652 48.1484 23.0537 49.3496 21.6572C50.4336 20.3975 51.8057 19.6846 53.4658 19.5186V20.6611C52.6064 20.8271 51.9766 21.3887 51.5762 22.3457C51.1465 23.4004 50.9316 24.9824 50.9316 27.0918C50.9316 30.1875 51.4102 32.1455 52.3672 32.9658C52.6895 33.2295 53.0557 33.4004 53.4658 33.4785V34.6211ZM54.6816 33.4932C56.4102 33.2002 57.2744 31.0664 57.2744 27.0918C57.2744 23.9375 56.7666 21.9502 55.751 21.1299C55.4287 20.876 55.0723 20.7148 54.6816 20.6465V19.5039C56.3418 19.6309 57.7285 20.3291 58.8418 21.5986C60.0723 23.0146 60.6875 24.8457 60.6875 27.0918C60.6875 29.3281 60.082 31.1445 58.8711 32.541C57.7578 33.8105 56.3613 34.5088 54.6816 34.6357V33.4932Z" fill="#AD4900"/>
<path d="M68.7588 33.4785C69.4912 33.3711 70.0771 33.1025 70.5166 32.6729C70.9658 32.2334 71.1904 31.7256 71.1904 31.1494C71.1904 30.5732 71.0732 30.1289 70.8389 29.8164C70.6143 29.4941 70.3115 29.2207 69.9307 28.9961C69.5596 28.7617 69.1348 28.5566 68.6562 28.3809C68.1777 28.1953 67.6895 28.0146 67.1914 27.8389C66.6934 27.6533 66.2051 27.4482 65.7266 27.2236C65.248 26.999 64.8184 26.7305 64.4375 26.418C63.6074 25.7246 63.1924 24.8164 63.1924 23.6934C63.1924 22.6875 63.5732 21.7939 64.335 21.0127C65.1943 20.1143 66.3174 19.6113 67.7041 19.5039V20.6611C67.1377 20.7686 66.6836 21.0029 66.3418 21.3643C66.0098 21.7256 65.8438 22.1504 65.8438 22.6387C65.8438 23.127 65.9609 23.5176 66.1953 23.8105C66.4297 24.0938 66.7373 24.3428 67.1182 24.5576C67.5088 24.7627 67.9482 24.9531 68.4365 25.1289C68.9346 25.2949 69.4424 25.4756 69.96 25.6709C70.4775 25.8564 70.9805 26.0664 71.4688 26.3008C71.9668 26.5254 72.4062 26.8086 72.7871 27.1504C73.6465 27.9121 74.0762 28.8984 74.0762 30.1094C74.0762 31.1738 73.6758 32.126 72.875 32.9658C71.918 33.9717 70.5459 34.5283 68.7588 34.6357V33.4785ZM69.7549 22.9463C69.7549 22.2139 70.0234 21.7451 70.5605 21.54C70.2578 21.0029 69.7109 20.6953 68.9199 20.6172V19.5039C70.209 19.6016 71.2832 19.958 72.1426 20.5732C72.9922 21.1885 73.417 21.9307 73.417 22.7998C73.417 23.3271 73.251 23.7422 72.9189 24.0449C72.5967 24.3477 72.1523 24.499 71.5859 24.499C71.0293 24.499 70.585 24.3574 70.2529 24.0742C69.9209 23.791 69.7549 23.415 69.7549 22.9463ZM66.708 31.1934C66.708 31.9258 66.4395 32.3945 65.9023 32.5996C66.2051 33.1367 66.752 33.4443 67.543 33.5225V34.6357C66.2832 34.5576 65.209 34.2012 64.3203 33.5664C63.4707 32.9512 63.0459 32.209 63.0459 31.3398C63.0459 30.8125 63.207 30.3975 63.5293 30.0947C63.8613 29.792 64.3057 29.6406 64.8623 29.6406C65.4287 29.6406 65.8779 29.7822 66.21 30.0654C66.542 30.3486 66.708 30.7246 66.708 31.1934Z" fill="#AD4900"/>
<path d="M81.9424 20.0605H84.3447V21.3496H81.9424V20.0605ZM80.7266 34.6357C79.0371 34.5576 78.041 33.8057 77.7383 32.3799C77.6406 31.9307 77.5918 31.4277 77.5918 30.8711V21.3496H75.6143V20.4561C75.7607 20.3291 75.917 20.2266 76.083 20.1484C76.2588 20.0605 76.4297 19.9775 76.5957 19.8994C77.0254 19.6846 77.3379 19.4258 77.5332 19.123C77.7285 18.8105 77.8896 18.4785 78.0166 18.127C78.1533 17.7656 78.2656 17.4092 78.3535 17.0576C78.4512 16.6963 78.5391 16.3447 78.6172 16.0029C78.7051 15.6611 78.8125 15.3242 78.9395 14.9922L80.7266 14.9043V34.6357ZM81.9424 33.3027C82.6748 33.3027 83.2461 32.7803 83.6562 31.7354C83.7832 31.4131 83.9053 31.0615 84.0225 30.6807L84.96 30.9004C84.6963 32.6484 84.0957 33.7666 83.1582 34.2549C82.8164 34.4307 82.4111 34.5479 81.9424 34.6064V33.3027Z" fill="#AD4900"/>
<path d="M95.873 25.5244C95.873 22.7119 95.1699 21.1299 93.7637 20.7783V19.5186C95.5898 19.6846 96.9961 20.4512 97.9824 21.8184C98.9102 23.0977 99.374 24.7627 99.374 26.8135H91.083V25.5244H95.873ZM93.8223 33.3613C95.5215 33.2832 96.7275 32.4824 97.4404 30.959C97.6455 30.5195 97.8213 30.0703 97.9678 29.6113L99.2275 30.0801C98.6807 32.1211 97.5625 33.4932 95.873 34.1963C95.2773 34.4404 94.5938 34.5869 93.8223 34.6357V33.3613ZM89.8525 26.1543C89.8525 30.3535 90.7705 32.7168 92.6064 33.2441V34.5918C90.6924 34.377 89.1738 33.5811 88.0508 32.2041C86.9277 30.8467 86.3662 29.1426 86.3662 27.0918C86.3662 24.9336 86.9277 23.1611 88.0508 21.7744C89.1836 20.3779 90.6826 19.6211 92.5479 19.5039V20.7197C90.751 20.9346 89.8525 22.7461 89.8525 26.1543Z" fill="#AD4900"/>
<path d="M107.108 19.709V31.9404C107.108 32.3994 107.309 32.7314 107.709 32.9365C107.895 33.0342 108.095 33.1221 108.31 33.2002C108.524 33.2686 108.734 33.3613 108.939 33.4785V34.2549H102.128V33.4785C102.333 33.3613 102.543 33.2686 102.758 33.2002C102.982 33.1221 103.188 33.0342 103.373 32.9365C103.783 32.7314 103.988 32.3994 103.988 31.9404V22.1406C103.988 21.623 103.793 21.2666 103.402 21.0713C103.227 20.9834 103.026 20.915 102.802 20.8662C102.577 20.8076 102.353 20.7197 102.128 20.6025V19.7969L107.108 19.709ZM103.446 15.168C103.446 14.6016 103.627 14.1475 103.988 13.8057C104.35 13.4541 104.74 13.2783 105.16 13.2783C105.59 13.2783 105.922 13.3271 106.156 13.4248C106.4 13.5127 106.61 13.6396 106.786 13.8057C107.157 14.1572 107.343 14.6113 107.343 15.168C107.343 15.7148 107.157 16.1641 106.786 16.5156C106.425 16.8574 105.956 17.0283 105.38 17.0283C104.813 17.0283 104.35 16.8574 103.988 16.5156C103.627 16.1738 103.446 15.7246 103.446 15.168Z" fill="#AD4900"/>
<path d="M119.486 21.0566C118.676 21.0566 117.934 21.374 117.26 22.0088V20.4121C118.119 19.7969 119.13 19.4893 120.292 19.4893C121.64 19.4893 122.729 19.8408 123.559 20.5439C124.408 21.2764 124.833 22.3066 124.833 23.6348V31.3398C124.833 32.2676 125.023 32.8096 125.404 32.9658C125.521 33.0146 125.648 33.0537 125.785 33.083C126.156 33.1807 126.444 33.3125 126.649 33.4785V34.2549H120.98V33.2588C120.98 33.0732 121.063 32.9023 121.229 32.7461C121.396 32.5898 121.518 32.458 121.596 32.3506C121.674 32.2334 121.713 32.0674 121.713 31.8525V23.4883C121.713 21.8672 120.971 21.0566 119.486 21.0566ZM116.044 31.2812C116.044 32.1992 116.239 32.751 116.63 32.9365C116.747 32.9854 116.874 33.0342 117.011 33.083C117.411 33.21 117.704 33.3418 117.89 33.4785V34.2549H111.063V33.4785C111.239 33.3418 111.459 33.2295 111.723 33.1416C111.996 33.0537 112.191 32.9854 112.309 32.9365C112.436 32.8877 112.543 32.7998 112.631 32.6729C112.816 32.4189 112.909 31.9648 112.909 31.3105V22.8584C112.909 21.8916 112.719 21.3301 112.338 21.1738C112.221 21.125 112.094 21.0811 111.957 21.042C111.527 20.9443 111.22 20.8271 111.034 20.6904V19.7969H116.044V31.2812Z" fill="#AD4900"/>
<path d="M137.973 25.5244C137.973 22.7119 137.27 21.1299 135.863 20.7783V19.5186C137.689 19.6846 139.096 20.4512 140.082 21.8184C141.01 23.0977 141.474 24.7627 141.474 26.8135H133.183V25.5244H137.973ZM135.922 33.3613C137.621 33.2832 138.827 32.4824 139.54 30.959C139.745 30.5195 139.921 30.0703 140.067 29.6113L141.327 30.0801C140.78 32.1211 139.662 33.4932 137.973 34.1963C137.377 34.4404 136.693 34.5869 135.922 34.6357V33.3613ZM131.952 26.1543C131.952 30.3535 132.87 32.7168 134.706 33.2441V34.5918C132.792 34.377 131.273 33.5811 130.15 32.2041C129.027 30.8467 128.466 29.1426 128.466 27.0918C128.466 24.9336 129.027 23.1611 130.15 21.7744C131.283 20.3779 132.782 19.6211 134.647 19.5039V20.7197C132.851 20.9346 131.952 22.7461 131.952 26.1543Z" fill="#AD4900"/>
<path d="M152.27 21.0566C151.459 21.0566 150.717 21.374 150.043 22.0088V20.4121C150.902 19.7969 151.913 19.4893 153.075 19.4893C154.423 19.4893 155.512 19.8408 156.342 20.5439C157.191 21.2764 157.616 22.3066 157.616 23.6348V31.3398C157.616 32.2676 157.807 32.8096 158.188 32.9658C158.305 33.0146 158.432 33.0537 158.568 33.083C158.939 33.1807 159.228 33.3125 159.433 33.4785V34.2549H153.764V33.2588C153.764 33.0732 153.847 32.9023 154.013 32.7461C154.179 32.5898 154.301 32.458 154.379 32.3506C154.457 32.2334 154.496 32.0674 154.496 31.8525V23.4883C154.496 21.8672 153.754 21.0566 152.27 21.0566ZM148.827 31.2812C148.827 32.1992 149.022 32.751 149.413 32.9365C149.53 32.9854 149.657 33.0342 149.794 33.083C150.194 33.21 150.487 33.3418 150.673 33.4785V34.2549H143.847V33.4785C144.022 33.3418 144.242 33.2295 144.506 33.1416C144.779 33.0537 144.975 32.9854 145.092 32.9365C145.219 32.8877 145.326 32.7998 145.414 32.6729C145.6 32.4189 145.692 31.9648 145.692 31.3105V22.8584C145.692 21.8916 145.502 21.3301 145.121 21.1738C145.004 21.125 144.877 21.0811 144.74 21.042C144.311 20.9443 144.003 20.8271 143.817 20.6904V19.7969H148.827V31.2812Z" fill="#AD4900"/>
<path d="M176.732 13.4395C182.465 13.4395 185.331 15.168 185.331 18.625C185.331 20.0312 184.813 21.2031 183.778 22.1406C182.694 23.1172 181.22 23.6445 179.354 23.7227V23.7812C180.37 24.0254 181.156 24.5381 181.713 25.3193C182.006 25.7295 182.328 26.3838 182.68 27.2822C183.031 28.1709 183.31 28.8789 183.515 29.4062C183.72 29.9238 183.925 30.3926 184.13 30.8125C184.589 31.7598 184.994 32.2334 185.346 32.2334C185.492 32.2334 185.619 32.1699 185.727 32.043C185.834 31.9062 185.941 31.7549 186.049 31.5889C186.352 31.1689 186.625 30.959 186.869 30.959C186.898 30.959 186.967 30.9883 187.074 31.0469C187.182 31.0957 187.235 31.1982 187.235 31.3545C187.235 31.5107 187.201 31.6768 187.133 31.8525C186.576 32.7412 186.156 33.3223 185.873 33.5957C185.268 34.1914 184.594 34.4893 183.852 34.4893C183.119 34.4893 182.533 34.3721 182.094 34.1377C181.664 33.9033 181.303 33.5908 181.01 33.2002C180.717 32.7998 180.478 32.3408 180.292 31.8232C180.116 31.3057 179.955 30.7637 179.809 30.1973C179.672 29.6309 179.535 29.0596 179.398 28.4834C179.262 27.9072 179.091 27.3604 178.886 26.8428C178.417 25.6807 177.768 24.8945 176.938 24.4844C176.732 24.377 176.483 24.2646 176.19 24.1475V22.9463C178.954 22.9463 180.629 22.1699 181.215 20.6172C181.41 20.0801 181.508 19.4453 181.508 18.7129C181.508 17.3945 181.122 16.3691 180.351 15.6367C179.579 14.9043 178.397 14.5381 176.806 14.5381C176.522 14.5381 176.317 14.5527 176.19 14.582V13.4395H176.732ZM174.975 30.7686C174.975 31.4131 174.994 31.8672 175.033 32.1309C175.072 32.3945 175.16 32.585 175.297 32.7021C175.443 32.8193 175.614 32.9121 175.81 32.9805C176.005 33.0391 176.21 33.0928 176.425 33.1416C176.64 33.1904 176.84 33.2734 177.025 33.3906V34.2549H169.262V33.3906C169.408 33.2734 169.584 33.1904 169.789 33.1416C169.994 33.0928 170.199 33.0342 170.404 32.9658C170.893 32.8193 171.166 32.5459 171.225 32.1455C171.283 31.7354 171.312 31.2666 171.312 30.7393V16.9404C171.312 15.8564 171.186 15.2119 170.932 15.0068C170.727 14.8408 170.438 14.7139 170.067 14.626C169.706 14.5283 169.438 14.4209 169.262 14.3037V13.4395H174.975V30.7686Z" fill="#AD4900"/>
<path d="M195.98 26.7842C193.363 27.7314 192.055 29.1133 192.055 30.9297C192.055 31.6621 192.23 32.2529 192.582 32.7021C192.934 33.1416 193.456 33.3613 194.149 33.3613C194.853 33.3613 195.463 33.1025 195.98 32.585V33.9766C195.229 34.4258 194.379 34.6504 193.432 34.6504C192.484 34.6504 191.723 34.5576 191.146 34.3721C190.58 34.1865 190.102 33.9326 189.711 33.6104C188.9 32.9561 188.495 32.0918 188.495 31.0176C188.495 28.8008 190.463 27.126 194.398 25.9932C194.955 25.8271 195.482 25.6807 195.98 25.5537V26.7842ZM192.509 21.54C193.046 21.7451 193.314 22.2139 193.314 22.9463C193.314 23.415 193.148 23.791 192.816 24.0742C192.484 24.3574 192.035 24.499 191.469 24.499C190.912 24.499 190.468 24.3477 190.136 24.0449C189.813 23.7422 189.652 23.3516 189.652 22.873C189.652 22.3945 189.765 21.9648 189.989 21.584C190.214 21.2031 190.531 20.8662 190.941 20.5732C191.791 19.958 192.86 19.6016 194.149 19.5039V20.6172C193.358 20.6953 192.812 21.0029 192.509 21.54ZM201.225 32.8047C201.762 32.8047 202.104 32.3164 202.25 31.3398L202.997 31.7354C202.899 32.6826 202.636 33.4053 202.206 33.9033C201.786 34.4014 201.112 34.6504 200.185 34.6504C199.462 34.6504 198.925 34.5186 198.573 34.2549C198.007 33.8252 197.548 33.1758 197.196 32.3066V23.1807C197.196 22.5752 197.035 22.0527 196.713 21.6133C196.4 21.1641 195.951 20.8613 195.365 20.7051V19.5039C198.676 19.6797 200.331 21.4277 200.331 24.748V31.6768C200.331 32.4287 200.629 32.8047 201.225 32.8047Z" fill="#AD4900"/>
<path d="M210.937 33.083C211.737 33.083 212.46 32.7705 213.104 32.1455V33.8301C212.226 34.377 211.142 34.6504 209.853 34.6504C207.724 34.6504 206.4 33.9033 205.883 32.4092C205.707 31.8916 205.619 31.2666 205.619 30.5342V22.2285C205.619 21.7207 205.429 21.3643 205.048 21.1592C204.882 21.0713 204.696 21.0029 204.491 20.9541C204.286 20.8955 204.091 20.8076 203.905 20.6904V19.7969H208.754V30.7979C208.754 32.3213 209.481 33.083 210.937 33.083ZM214.32 22.2285C214.32 21.7109 214.125 21.3545 213.734 21.1592C213.559 21.0713 213.363 21.0029 213.148 20.9541C212.934 20.8955 212.719 20.8076 212.504 20.6904V19.7969H217.44V31.8525C217.44 32.3604 217.641 32.7119 218.041 32.9072C218.217 32.9951 218.407 33.0684 218.612 33.127C218.817 33.1855 219.013 33.2734 219.198 33.3906V34.2549H214.525L214.32 32.7021V22.2285Z" fill="#AD4900"/>
<path d="M227.021 20.0605H229.423V21.3496H227.021V20.0605ZM225.805 34.6357C224.115 34.5576 223.119 33.8057 222.816 32.3799C222.719 31.9307 222.67 31.4277 222.67 30.8711V21.3496H220.692V20.4561C220.839 20.3291 220.995 20.2266 221.161 20.1484C221.337 20.0605 221.508 19.9775 221.674 19.8994C222.104 19.6846 222.416 19.4258 222.611 19.123C222.807 18.8105 222.968 18.4785 223.095 18.127C223.231 17.7656 223.344 17.4092 223.432 17.0576C223.529 16.6963 223.617 16.3447 223.695 16.0029C223.783 15.6611 223.891 15.3242 224.018 14.9922L225.805 14.9043V34.6357ZM227.021 33.3027C227.753 33.3027 228.324 32.7803 228.734 31.7354C228.861 31.4131 228.983 31.0615 229.101 30.6807L230.038 30.9004C229.774 32.6484 229.174 33.7666 228.236 34.2549C227.895 34.4307 227.489 34.5479 227.021 34.6064V33.3027Z" fill="#AD4900"/>
<path d="M238.783 26.7842C236.166 27.7314 234.857 29.1133 234.857 30.9297C234.857 31.6621 235.033 32.2529 235.385 32.7021C235.736 33.1416 236.259 33.3613 236.952 33.3613C237.655 33.3613 238.266 33.1025 238.783 32.585V33.9766C238.031 34.4258 237.182 34.6504 236.234 34.6504C235.287 34.6504 234.525 34.5576 233.949 34.3721C233.383 34.1865 232.904 33.9326 232.514 33.6104C231.703 32.9561 231.298 32.0918 231.298 31.0176C231.298 28.8008 233.266 27.126 237.201 25.9932C237.758 25.8271 238.285 25.6807 238.783 25.5537V26.7842ZM235.312 21.54C235.849 21.7451 236.117 22.2139 236.117 22.9463C236.117 23.415 235.951 23.791 235.619 24.0742C235.287 24.3574 234.838 24.499 234.271 24.499C233.715 24.499 233.271 24.3477 232.938 24.0449C232.616 23.7422 232.455 23.3516 232.455 22.873C232.455 22.3945 232.567 21.9648 232.792 21.584C233.017 21.2031 233.334 20.8662 233.744 20.5732C234.594 19.958 235.663 19.6016 236.952 19.5039V20.6172C236.161 20.6953 235.614 21.0029 235.312 21.54ZM244.027 32.8047C244.564 32.8047 244.906 32.3164 245.053 31.3398L245.8 31.7354C245.702 32.6826 245.438 33.4053 245.009 33.9033C244.589 34.4014 243.915 34.6504 242.987 34.6504C242.265 34.6504 241.728 34.5186 241.376 34.2549C240.81 33.8252 240.351 33.1758 239.999 32.3066V23.1807C239.999 22.5752 239.838 22.0527 239.516 21.6133C239.203 21.1641 238.754 20.8613 238.168 20.7051V19.5039C241.479 19.6797 243.134 21.4277 243.134 24.748V31.6768C243.134 32.4287 243.432 32.8047 244.027 32.8047Z" fill="#AD4900"/>
<path d="M263.407 34.6943C260.907 34.5186 258.842 33.3857 257.211 31.2959C255.629 29.2646 254.838 26.7793 254.838 23.8398C254.838 20.9199 255.629 18.4443 257.211 16.4131C258.842 14.3232 260.907 13.1904 263.407 13.0146V14.2158C261.972 14.3623 260.893 15.124 260.17 16.501C259.359 18.083 258.954 20.5293 258.954 23.8398C258.954 28.7031 259.828 31.7061 261.576 32.8486C262.123 33.2002 262.733 33.4102 263.407 33.4785V34.6943ZM264.623 33.4785C266.811 33.2539 268.188 31.5107 268.754 28.249C268.969 27.0479 269.076 25.5781 269.076 23.8398C269.076 18.9961 268.202 16.0029 266.454 14.8604C265.907 14.5088 265.297 14.2939 264.623 14.2158V13C267.143 13.1758 269.213 14.3037 270.834 16.3838C272.426 18.4248 273.222 20.9102 273.222 23.8398C273.222 26.7695 272.426 29.2549 270.834 31.2959C269.213 33.376 267.143 34.5039 264.623 34.6797V33.4785Z" fill="#AD4900"/>
<path d="M282.743 28.9082C283.065 27.9902 283.363 27.1504 283.637 26.3887C283.92 25.6172 284.169 24.9336 284.384 24.3379C284.843 23.0684 285.072 22.2773 285.072 21.9648C285.072 21.6426 285.019 21.4375 284.911 21.3496C284.804 21.252 284.667 21.1787 284.501 21.1299C284.345 21.0713 284.169 21.0225 283.974 20.9834C283.778 20.9346 283.593 20.8662 283.417 20.7783V19.8848H288.603V20.7783C288.446 20.876 288.285 20.9492 288.119 20.998C287.963 21.0469 287.812 21.1006 287.665 21.1592C287.313 21.3154 287.069 21.5791 286.933 21.9502L283.578 30.8125L282.743 28.9082ZM277.089 36.3057C277.226 36.4326 277.333 36.5791 277.411 36.7451C277.489 36.9209 277.528 37.1504 277.528 37.4336C277.528 37.7168 277.357 38.0391 277.016 38.4004C277.162 38.5957 277.353 38.6934 277.587 38.6934C278.173 38.6934 278.729 38.3125 279.257 37.5508C279.794 36.7988 280.268 35.7295 280.678 34.3428L275.653 21.8037C275.487 21.374 275.072 21.0811 274.408 20.9248C274.252 20.8857 274.105 20.8369 273.969 20.7783V19.8848H280.678V20.749C280.473 20.8271 280.268 20.8955 280.062 20.9541C279.857 21.0029 279.672 21.0615 279.506 21.1299C279.125 21.2666 278.935 21.4521 278.935 21.6865C278.935 21.8232 279.135 22.4141 279.535 23.459L279.55 23.4736C280.136 24.9482 280.712 26.418 281.278 27.8828C281.854 29.3379 282.436 30.7979 283.021 32.2627L281.308 36.7158C280.36 39.0986 278.949 40.29 277.074 40.29C275.805 40.29 274.955 39.792 274.525 38.7959C274.389 38.4736 274.32 38.0684 274.32 37.5801C274.32 37.0918 274.481 36.6914 274.804 36.3789C275.136 36.0664 275.478 35.9102 275.829 35.9102C276.181 35.9102 276.444 35.9443 276.62 36.0127C276.796 36.0908 276.952 36.1885 277.089 36.3057Z" fill="#AD4900"/>
</svg>
